<?xml version="1.0" encoding="utf-8"?>
<svg version="1.0" id="Слой_1" xmlns="http://www.w3.org/2000/svg" x="0px" y="0px" viewBox="0 0 745 410"
	 style="enable-background:new 0 0 745 410;" xml:space="preserve">
	<g id="Layer_1-2">
		<path style="fill:none;stroke:#D8737F;stroke-width:38.0477;stroke-miterlimit:21.7317;" d="M352.1,26.9c6.6-0.8,12.3,4.6,12,11.3
			c-0.5,11-0.9,21-1.7,31c-2,20.4,5.9,40.5,21,54.3c13.2,13.3,31.5,20.1,50.1,18.5c88.1-2.9,176.5-4.3,264.8-6c0.7,0,1.3,0,2,0.1
			c2.3,0.4,4.6,0.9,6.8,1.5c4.5,1.2,7.6,5.2,7.8,9.8c1.9,35.6,4.1,71.1-4.8,106.6c-1,3.8-3.9,6.8-7.7,7.8
			c-21.1,5.6-42.3,4.9-63.3,5.6c-76.4,2.6-152.5,5.7-228.5,9.1c-27.1,1.4-34.4,9.3-37.5,37.5c-1.6,15.2-1.1,30.7-2.9,45.9
			c0,0.4-0.1,0.9-0.2,1.3c-1.2,5.2-2.5,10.3-4.1,15.4c-2.1,6.6-9.7,9.6-15.7,6.2c-53.1-30-96.6-68.4-146.3-97.7
			c-49.2-29.1-99.3-57.8-151.4-87.9c-6.3-3.6-7.3-12.3-2-17.3c3.6-3.4,7.1-6.3,11-8.4c50.7-27.2,101.7-53.6,152.6-80.4
			c33-17,66.3-34.1,99.2-51.8C325.3,32.7,338.5,28.5,352.1,26.9z"/>
	</g>
</svg>
